<svg xmlns:xlink="http://www.w3.org/1999/xlink" xmlns="http://www.w3.org/2000/svg" width="358.41873486558063" height="366.821875" viewBox="0 0 167.99999999999997 171.93876604444768" class="css-1j8o68f"><defs id="SvgjsDefs3478"><linearGradient id="SvgjsLinearGradient3485"><stop id="SvgjsStop3486" stop-color="#8f5e25" offset="0"></stop><stop id="SvgjsStop3487" stop-color="#fbf4a1" offset="0.5"></stop><stop id="SvgjsStop3488" stop-color="#8f5e25" offset="1"></stop></linearGradient><linearGradient id="SvgjsLinearGradient3485"><stop id="SvgjsStop3486" stop-color="#8f5e25" offset="0"></stop><stop id="SvgjsStop3487" stop-color="#fbf4a1" offset="0.5"></stop><stop id="SvgjsStop3488" stop-color="#8f5e25" offset="1"></stop></linearGradient><linearGradient id="SvgjsLinearGradient3485"><stop id="SvgjsStop3486" stop-color="#8f5e25" offset="0"></stop><stop id="SvgjsStop3487" stop-color="#fbf4a1" offset="0.5"></stop><stop id="SvgjsStop3488" stop-color="#8f5e25" offset="1"></stop></linearGradient><linearGradient id="SvgjsLinearGradient3485"><stop id="SvgjsStop3486" stop-color="#8f5e25" offset="0"></stop><stop id="SvgjsStop3487" stop-color="#fbf4a1" offset="0.5"></stop><stop id="SvgjsStop3488" stop-color="#8f5e25" offset="1"></stop></linearGradient><linearGradient id="SvgjsLinearGradient3485"><stop id="SvgjsStop3486" stop-color="#8f5e25" offset="0"></stop><stop id="SvgjsStop3487" stop-color="#fbf4a1" offset="0.5"></stop><stop id="SvgjsStop3488" stop-color="#8f5e25" offset="1"></stop></linearGradient></defs><g id="SvgjsG3479" featurekey="rootContainer" transform="matrix(1.6245278137204422,0,0,1.6245278137204422,-0.20118472665373,0.063714364635519)" fill="url(&quot;#SvgjsLinearGradient3485&quot;)"><g xmlns="http://www.w3.org/2000/svg" fill="url(&quot;#SvgjsLinearGradient3485&quot;)"><path d="M40.7 103.4a3 3 0 0 0-1.9-.4c.3.8-.2.8-.7.7s-1-.6-1.5 0 2 .4 3 .8a.9.9 0 0 0 1.1 0 3.7 3.7 0 0 0 0-1.1zM11.9 87c-.7-.2-1.1-.6-1.7-.8s-.5-.7-.8-1.1H9a2 2 0 0 0 1.1 1.6 4.7 4.7 0 0 0 1.5 1.8c0-.5 1.8-1.2.3-1.5zm3.5 4.5a2.4 2.4 0 0 1-1.1-1.1.2.2 0 0 0-.4 0l-.4.4 2.2 1.9V92zm-7.5-8.6h-.8l1.1 1.5a.8.8 0 0 0 .4-.7.3.3 0 0 0 .1-.4 1 1 0 0 0-.8-.4zm2.4-62.1c0-.4.1-.8-.6-.7h-.3L9 21.6c.7.2 1.1-.2 1.3-.8zm17.8 79.3v.7h.7c.2 0 .6-.1.5-.3s-.8-.4-1.2-.4z" fill="url(&quot;#SvgjsLinearGradient3485&quot;)"></path><path d="M103.4 57.2v-2.3c0-1.2.5-2.5-.4-3.7v-.4a6 6 0 0 0 0-4.2l-.2-1.4-.3-1.6v-.8c-.2-1 .1-2.1-1.1-2.7a.2.2 0 0 0 0-.2v-1.1a3.7 3.7 0 0 0-.8-1.9c-.2-.7-.2-1.4-.7-2v-.6l-.4-1.2c-.2-.5-.2-1.1-.7-1.5l-3-5.9h-.3V25l-1-.9c-1.1-1.7-2-3.6-3.4-5.1l-.4-.8-.8-.3-.7-.8-3.2-3.7h-.4c-.1-.3-.4-.3-.7-.3a4 4 0 0 0-2.7-1.9c-.3-1.4-1.5-1.7-2.6-2.2l-.3-.3a2.1 2.1 0 0 0-1.5-.8l-.4-.7h-.7l-3.5-2.1C72 5 71 4.1 69.8 3.7h-.7A1 1 0 0 0 68 3l-1.8-.5-1.5-.6-.8-.4h-.7l-1.5-.3a1.1 1.1 0 0 0-1.1.3c-.1-.7-.7-.7-1.2-.8h-.7l-1 .3c-.5-1.2-1.6-.5-2.4-.7L53.5 0h-.4c-1.1.1-2.3-.3-3.4.3h-4.5l-.4.4h-2.2l-1.9.3c-.8.2-1.6.1-2.3.7a3.7 3.7 0 0 1-2.6.1l-1.1.6h-.4l-.3.2a2 2 0 0 0-1.4.7h-.1l-.9.4h-.1c-.3-.1-.6.2-.9.1l-.3.4-.8.6c-.2-.3-.4-.2-.7-.2v.7a1.8 1.8 0 0 0-1.9.4h-.7l-1.2 1h.2l-.8.8H24a2.5 2.5 0 0 0-1.9 1.4c-.6.5-1.5.6-1.9 1.4h-.3v.4a2 2 0 0 0-1.6 1.1 2.3 2.3 0 0 0-1.1 1.2 1.7 1.7 0 0 0-1.5 1.1 4.5 4.5 0 0 0-1.9 1.9l-.3.4c.2.4.9.4 1.4.5a50.9 50.9 0 0 0 28.6 86.2.8.8 0 0 0 .7.3h.7a51.3 51.3 0 0 0 6 .4h.8a1.4 1.4 0 0 1 .1.6c-1.5.9-3.1-1.4-4.6.1.3.3.8.3.8.9l4.8.4H54a2 2 0 0 1 0-.3 3.4 3.4 0 0 0 1.8-.5c.6-.1 1.2 1 1.7-.1.9 0 1.9.4 2.6-.7h.1c.9 0 1.9.6 2.6-.4l2.6-.3.4.2 2.3-1.3h1c.6.2 1-.2 1.3-.7s2.1-1 3.3-1a3 3 0 0 0 2.7-1.2l2.6-1.7c.7.1.9-.7 1.4-.8s.9-.8 1.5-1.1l.3-.3h.1c.4.1.6-.2.7-.5l.4-.4 2.3-2.6 1.1-1.1.7-.4c.6.1.7-.6 1.1-.8l.9-1.1.6-.4a1.9 1.9 0 0 0 1.3-1.3v-.2a1.8 1.8 0 0 0 .5-.7h.2a1.5 1.5 0 0 0 .5-.5c-.1-.9 1.1-1.1 1.1-2l.9-1.4a1.9 1.9 0 0 0 1.2-1.7c.2-.5.8-.7.6-1.4l.8-.8v-.9c.3 0 .5-.3.7-.5l.4-.7.7-1.6.4-1 .8-1.8.3-.4.2-1.1.5-1.4a1.2 1.2 0 0 0 .3-1.2c.5-.2.3-.7.5-1.1a.5.5 0 0 1 0-.4V65c.5-.5.4-1.1.4-1.7v-.5c.6-.9.2-2.1.6-3s-.3-.6.1-.8h.3v-1h-.1zm-2.9-19.5zM82.2 11.9zM65.8 3zm0 0zM56.4.8zm.1 103zm39.9-24.9zM102 62z" fill="url(&quot;#SvgjsLinearGradient3485&quot;)"></path></g></g><g id="SvgjsG3480" featurekey="monogramFeature-0" transform="matrix(1.3209020634811728,0,0,1.3209020634811728,38.39783576719175,27.748224711167303)" fill="#000000"><path d="M29.46 19.380000000000003 q3.66 0 6.09 1.95 t2.01 4.47 q-0.06 0.72 -0.42 1.77 t-0.96 2.52 t-1.56 2.88 t-2.13 2.61 t-2.76 1.89 t-3.33 0.63 q3.24 -1.98 5.94 -7.56 q2.4 -5.1 1.56 -7.08 q-0.3 -0.54 -0.84 -0.66 q-2.04 -0.3 -5.73 1.8 t-6.99 5.01 t-5.52 6.03 t-1.62 4.74 q0.3 0.78 0.75 1.56 t1.32 1.86 t1.26 1.56 t1.74 1.92 t1.59 1.68 q7.02 -0.3 10.02 1.02 q-3.72 -0.36 -9.12 -0.06 q1.44 1.68 2.4 3.06 t1.62 3 t0.48 3.27 t-1.2 3.27 q-3.06 4.74 -12.18 6.48 q-8.46 1.62 -15.6 -0.36 q-6.66 -1.92 -7.14 -6.06 q-0.36 -2.82 2.52 -6.3 q1.8 -1.62 5.91 -3.12 t9.03 -2.52 t9.84 -1.44 q-0.3 -0.3 -0.84 -0.9 q-2.7 -2.94 -4.05 -4.56 t-2.61 -4.02 t-0.96 -4.08 q0.6 -2.76 4.35 -6.63 t8.7 -6.78 t8.43 -2.85 z M21.72 58.08 q0.42 -1.32 -0.72 -3.21 t-3.6 -4.65 q-7.92 0.78 -14.85 2.82 t-10.35 5.22 q1.2 2.94 4.5 4.47 t7.23 1.5 t7.8 -0.78 t6.69 -2.28 t3.3 -3.09 z M67.827 65.04 q0.42 0.3 0.99 0.21 t1.41 -0.66 t1.62 -1.23 t1.68 -1.59 t1.62 -1.74 t1.38 -1.59 q-0.24 2.04 -2.16 4.56 t-3.99 4.14 t-2.85 1.56 q-2.46 -0.12 -3.84 -1.95 t-1.68 -4.92 t0.06 -6.78 t1.32 -8.13 q-4.14 0.24 -8.58 1.08 q-8.22 9.48 -15.51 15.84 t-10.35 6.3 q-2.1 -0.06 -3.36 -0.93 t-1.59 -2.1 t-0.21 -2.67 t0.48 -2.55 t0.84 -1.77 q3.66 -4.92 11.55 -8.7 t17.01 -5.52 q5.76 -6.42 10.83 -13.5 t8.07 -12.66 q0.36 -0.78 0.72 -1.38 q0.96 0.12 2.31 1.95 t1.53 3.57 q-1.2 1.62 -3.54 7.77 t-3.96 13.35 q7.74 0.78 10.32 4.38 q-4.14 -2.16 -10.68 -2.52 q-2.04 10.02 -1.44 18.18 z M26.307 62.04 q1.32 1.44 3.33 1.53 t4.41 -0.96 t5.25 -3.09 t5.76 -4.71 t6.03 -5.97 q-8.58 2.04 -15.39 5.61 t-9.39 7.59 z M63.867 44.76 q1.56 -6.42 3.96 -13.38 q-4.56 6.66 -10.74 13.98 q3.54 -0.48 6.78 -0.6 z"></path></g><g id="SvgjsG3481" featurekey="nameFeature-0" transform="matrix(1,0,0,1,84,120)" fill="#F6F6F6"><path d="" fill="#F6F6F6"></path></g></svg>