<svg xmlns:xlink="http://www.w3.org/1999/xlink" xmlns="http://www.w3.org/2000/svg" width="358.2327318540176" height="366.82187500000003" viewBox="0 0 90 92.15787898313388" class="css-1j8o68f"><defs id="SvgjsDefs25030"><linearGradient id="SvgjsLinearGradient25037"><stop id="SvgjsStop25038" stop-color="#8f5e25" offset="0"></stop><stop id="SvgjsStop25039" stop-color="#fbf4a1" offset="0.5"></stop><stop id="SvgjsStop25040" stop-color="#8f5e25" offset="1"></stop></linearGradient><linearGradient id="SvgjsLinearGradient25041"><stop id="SvgjsStop25042" stop-color="#8f5e25" offset="0"></stop><stop id="SvgjsStop25043" stop-color="#fbf4a1" offset="0.5"></stop><stop id="SvgjsStop25044" stop-color="#8f5e25" offset="1"></stop></linearGradient><linearGradient id="SvgjsLinearGradient25037"><stop id="SvgjsStop25038" stop-color="#8f5e25" offset="0"></stop><stop id="SvgjsStop25039" stop-color="#fbf4a1" offset="0.5"></stop><stop id="SvgjsStop25040" stop-color="#8f5e25" offset="1"></stop></linearGradient><linearGradient id="SvgjsLinearGradient25037"><stop id="SvgjsStop25038" stop-color="#8f5e25" offset="0"></stop><stop id="SvgjsStop25039" stop-color="#fbf4a1" offset="0.5"></stop><stop id="SvgjsStop25040" stop-color="#8f5e25" offset="1"></stop></linearGradient><linearGradient id="SvgjsLinearGradient25041"><stop id="SvgjsStop25042" stop-color="#8f5e25" offset="0"></stop><stop id="SvgjsStop25043" stop-color="#fbf4a1" offset="0.5"></stop><stop id="SvgjsStop25044" stop-color="#8f5e25" offset="1"></stop></linearGradient><linearGradient id="SvgjsLinearGradient25041"><stop id="SvgjsStop25042" stop-color="#8f5e25" offset="0"></stop><stop id="SvgjsStop25043" stop-color="#fbf4a1" offset="0.5"></stop><stop id="SvgjsStop25044" stop-color="#8f5e25" offset="1"></stop></linearGradient></defs><g id="SvgjsG25031" featurekey="rootContainer" transform="matrix(0.4856847006898369,0,0,0.4856847006898369,-0.0008985210502154325,-0.0012286514272708802)" fill="url(&quot;#SvgjsLinearGradient25037&quot;)"><path xmlns="http://www.w3.org/2000/svg" d="M.454 110.624c.675 4.351 1.763 8.621 3.033 12.817l1.025 3.125c.347 1.039.771 2.051 1.153 3.077.74 2.064 1.7 4.034 2.563 6.042 1.913 3.932 3.994 7.779 6.388 11.427.566.932 1.23 1.799 1.841 2.701.624.894 1.236 1.795 1.918 2.645l1.996 2.585 2.113 2.488c11.399 13.147 26.432 23.046 43.039 28.163 16.598 5.197 34.667 5.356 51.504.735l3.15-.906 3.104-1.06c1.042-.334 2.056-.749 3.071-1.157 1.011-.419 2.046-.783 3.038-1.251 4.021-1.749 7.889-3.842 11.65-6.119a102.167 102.167 0 0 0 10.692-7.754c3.353-2.871 6.568-5.922 9.531-9.226 1.945-2.303 5.351-6.243 9.014-12.025 3.65-5.768 7.65-13.344 10.542-22.549a99.19 99.19 0 0 0 3.46-14.833 98.685 98.685 0 0 0 1.001-16.528c-.255-11.393-2.547-23.429-7.238-34.699-4.634-11.281-11.568-21.739-19.946-30.275-8.357-8.569-18.109-15.186-27.856-19.646a93.328 93.328 0 0 0-14.431-5.255A98.725 98.725 0 0 0 102.372.577 94.292 94.292 0 0 0 81.623.573c-1.255.171-2.512.287-3.753.504-5.624.843-11.471 2.317-17.196 4.416a89.73 89.73 0 0 0-30.505 18.778 90.637 90.637 0 0 0-10.503 11.723c-2.648 3.512-4.989 7.288-7.097 11.185-2.139 3.884-3.906 7.973-5.45 12.112.204-.472.393-.944.605-1.402l.651-1.347 1.262-2.595c.915-1.639 1.717-3.219 2.583-4.618-.573.963-1.028 1.99-1.542 2.973-.501.99-.999 1.969-1.417 2.962l-1.276 2.885-1.063 2.764c-1.332 3.548-2.18 6.534-2.549 8.214-1.18 4.616-1.569 7.493-1.735 9.034-.173 1.541-.107 1.759.107 1.173.214-.586.575-1.976.999-3.652l.795-2.641c.272-.91.542-1.829.871-2.677.816-2.47.843-1.983.969-1.854.154.139.272-.122 1.687-3.898-1.835 5.509-2.559 8.348-3.597 14.09.029.174.231-.843.511-2.404.146-.779.374-1.682.583-2.645.224-.959.418-1.984.709-2.957l.772-2.778c.225-.851.513-1.57.696-2.122.39-1.098.563-1.464.337-.477-1.86 5.273-3.134 11.435-3.863 17.181.15-.487.338-1.981.743-3.901.199-.96.357-2.044.623-3.153l.796-3.396c1.166-4.504 2.653-8.53 2.641-8.061-.226.746-.691 2.069-1.241 3.663l-.774 2.583-.41 1.366c-.13.461-.234.93-.351 1.392l-.652 2.692c-.198.857-.317 1.67-.446 2.377-.233 1.418-.394 2.436-.314 2.729.016.224.987-5.469 1.72-8.264l-.691 3.158c-.213 1.021-.348 2.022-.514 2.975-.354 1.903-.495 3.677-.676 5.245a26.747 26.747 0 0 0-.174 2.211L4.4 88.013c-.024.576-.055 1.094-.058 1.552l.027 1.184c.045 1.318.128 1.575.254.5.108-1.074.308-3.483.849-7.46-.342 2.766-.598 6.123-.686 9.531-.044 1.704.026 3.419.04 5.076.099 1.655.224 3.252.34 4.724l.003-.045-.162-2.536c-.048-.932-.146-1.924-.134-2.915-.019-1.978-.07-3.926.009-5.284-.098 3.34.05 6.697.316 10.034l.036-1.762-.102-1.872c-.026-.626-.014-1.256-.025-1.887l-.023-1.907-.016-.964.03-.971c-.06 1.105.011 2.212.02 3.321.027 1.109.022 2.22.125 3.329.005-.416-.005-.847.008-1.293l.062-1.38.109-2.99c.203-3.934.537-7.769 1.143-11.104.144-.835.253-1.645.407-2.414l.459-2.197c.147-.694.264-1.354.403-1.963l.403-1.685c3.799-16.639 12.546-32.126 24.86-43.916 3.076-2.944 6.336-5.703 9.829-8.135 3.479-2.443 7.096-4.705 10.911-6.579 3.802-1.886 7.707-3.588 11.757-4.861 4.037-1.294 8.151-2.38 12.342-3.033.039-.154-1.775.019.993-.538 1.092-.205 2.173-.306 3.226-.449l1.569-.189c.521-.045 1.038-.068 1.552-.101l3.048-.167 3.01.005c.501.005 1.001-.008 1.501.012l1.504.08c1.005.061 2.018.08 3.041.164 2.043.197 4.144.34 6.34.649l.667-.146c6.799 1.046 13.699 3.14 20.383 6.034 6.214 2.545 12.058 5.918 17.483 9.824 2.73 1.935 5.282 4.101 7.783 6.313 1.192 1.169 2.437 2.285 3.588 3.494 1.139 1.219 2.326 2.394 3.387 3.683-.16-.32-.208-.498.679.495.45.529.95 1.062 1.414 1.662l1.448 1.865c1.029 1.265 1.965 2.729 3.011 4.205 1.971 3.033 4.011 6.391 5.735 9.99l.813 1.569.729 1.592c.414.809.585.99.69 1.105l.539 1.223.463 1.217.891 2.34c.551 1.531.989 3.018 1.458 4.431 2.93 9.354 4.483 19.247 4.278 29.221-.088 4.983-.548 9.99-1.473 14.947a91.434 91.434 0 0 1-4.052 14.651c-3.526 9.583-8.748 18.722-15.589 26.761-6.817 8.048-15.208 15.035-24.84 20.299-1.023.547-2.021 1.146-3.066 1.651l-3.132 1.521c-2.129.917-4.249 1.864-6.435 2.608-4.339 1.57-8.773 2.799-13.208 3.564-3.277.617-6.832.968-10.498 1.193-.918.048-1.844.042-2.773.066-.93.003-1.866.065-2.804.009-1.875-.073-3.766-.093-5.642-.3-3.766-.261-7.476-.93-11.034-1.633-3.534-.822-6.917-1.727-9.977-2.816.202.18-.09.18-.748.048-.652-.148-1.697-.358-2.926-.794-2.483-.799-5.871-2.068-9.009-3.575-.786-.374-1.576-.724-2.324-1.099l-2.14-1.12c-1.377-.685-2.548-1.376-3.466-1.876-1.836-.999-2.624-1.296-1.389-.239-3.671-2.479-8.008-5.939-11.32-9.014-1.631-1.563-3.094-2.934-4.104-4.021-1.035-1.062-1.727-1.732-1.883-1.822-.465-.276-1.131-.776-2.116-1.653-1.011-.857-2.246-2.171-3.898-4.038-.828-.932-1.673-2.067-2.672-3.334-.993-1.272-1.975-2.789-3.129-4.46-2.161-3.429-4.624-7.732-6.956-13.281-.428-1.096-.91-2.258-1.347-3.485l-1.256-3.819c-.387-1.31-.728-2.649-1.088-3.966-.375-1.313-.599-2.647-.892-3.914-.132-.637-.284-1.257-.39-1.871l-.296-1.792c-.18-1.159-.396-2.233-.51-3.21-.234-1.953-.426-3.463-.562-4.283-.178-1.254-.227-1.143-.21-.349.018.795.156 2.334.276 3.856.093 1.531.346 3.042.413 3.864.079.822.04.942-.24-.344z" fill="url(&quot;#SvgjsLinearGradient25037&quot;)"></path></g><g id="SvgjsG25032" featurekey="monogramFeature-0" transform="matrix(0.7705262036973507,0,0,0.7705262036973507,18.398737530861855,11.853131081514263)" fill="url(&quot;#SvgjsLinearGradient25041&quot;)"><path d="M29.46 19.380000000000003 q3.66 0 6.09 1.95 t2.01 4.47 q-0.06 0.72 -0.42 1.77 t-0.96 2.52 t-1.56 2.88 t-2.13 2.61 t-2.76 1.89 t-3.33 0.63 q3.24 -1.98 5.94 -7.56 q2.4 -5.1 1.56 -7.08 q-0.3 -0.54 -0.84 -0.66 q-2.04 -0.3 -5.73 1.8 t-6.99 5.01 t-5.52 6.03 t-1.62 4.74 q0.3 0.78 0.75 1.56 t1.32 1.86 t1.26 1.56 t1.74 1.92 t1.59 1.68 q7.02 -0.3 10.02 1.02 q-3.72 -0.36 -9.12 -0.06 q1.44 1.68 2.4 3.06 t1.62 3 t0.48 3.27 t-1.2 3.27 q-3.06 4.74 -12.18 6.48 q-8.46 1.62 -15.6 -0.36 q-6.66 -1.92 -7.14 -6.06 q-0.36 -2.82 2.52 -6.3 q1.8 -1.62 5.91 -3.12 t9.03 -2.52 t9.84 -1.44 q-0.3 -0.3 -0.84 -0.9 q-2.7 -2.94 -4.05 -4.56 t-2.61 -4.02 t-0.96 -4.08 q0.6 -2.76 4.35 -6.63 t8.7 -6.78 t8.43 -2.85 z M21.72 58.08 q0.42 -1.32 -0.72 -3.21 t-3.6 -4.65 q-7.92 0.78 -14.85 2.82 t-10.35 5.22 q1.2 2.94 4.5 4.47 t7.23 1.5 t7.8 -0.78 t6.69 -2.28 t3.3 -3.09 z M67.827 65.04 q0.42 0.3 0.99 0.21 t1.41 -0.66 t1.62 -1.23 t1.68 -1.59 t1.62 -1.74 t1.38 -1.59 q-0.24 2.04 -2.16 4.56 t-3.99 4.14 t-2.85 1.56 q-2.46 -0.12 -3.84 -1.95 t-1.68 -4.92 t0.06 -6.78 t1.32 -8.13 q-4.14 0.24 -8.58 1.08 q-8.22 9.48 -15.51 15.84 t-10.35 6.3 q-2.1 -0.06 -3.36 -0.93 t-1.59 -2.1 t-0.21 -2.67 t0.48 -2.55 t0.84 -1.77 q3.66 -4.92 11.55 -8.7 t17.01 -5.52 q5.76 -6.42 10.83 -13.5 t8.07 -12.66 q0.36 -0.78 0.72 -1.38 q0.96 0.12 2.31 1.95 t1.53 3.57 q-1.2 1.62 -3.54 7.77 t-3.96 13.35 q7.74 0.78 10.32 4.38 q-4.14 -2.16 -10.68 -2.52 q-2.04 10.02 -1.44 18.18 z M26.307 62.04 q1.32 1.44 3.33 1.53 t4.41 -0.96 t5.25 -3.09 t5.76 -4.71 t6.03 -5.97 q-8.58 2.04 -15.39 5.61 t-9.39 7.59 z M63.867 44.76 q1.56 -6.42 3.96 -13.38 q-4.56 6.66 -10.74 13.98 q3.54 -0.48 6.78 -0.6 z" fill="url(&quot;#SvgjsLinearGradient25041&quot;)"></path></g><g id="SvgjsG25033" featurekey="nameFeature-0" transform="matrix(1,0,0,1,45,66)" fill="#111111"><path d="" fill="#111111"></path></g></svg>