<svg xmlns:xlink="http://www.w3.org/1999/xlink" xmlns="http://www.w3.org/2000/svg" width="365.7357639273071" height="366.821875" viewBox="0 0 168 168.49890297370172" class="css-1j8o68f"><defs id="SvgjsDefs30043"><linearGradient id="SvgjsLinearGradient30050"><stop id="SvgjsStop30051" stop-color="#8f5e25" offset="0"></stop><stop id="SvgjsStop30052" stop-color="#fbf4a1" offset="0.5"></stop><stop id="SvgjsStop30053" stop-color="#8f5e25" offset="1"></stop></linearGradient><linearGradient id="SvgjsLinearGradient30054"><stop id="SvgjsStop30055" stop-color="#8f5e25" offset="0"></stop><stop id="SvgjsStop30056" stop-color="#fbf4a1" offset="0.5"></stop><stop id="SvgjsStop30057" stop-color="#8f5e25" offset="1"></stop></linearGradient><linearGradient id="SvgjsLinearGradient30050"><stop id="SvgjsStop30051" stop-color="#8f5e25" offset="0"></stop><stop id="SvgjsStop30052" stop-color="#fbf4a1" offset="0.5"></stop><stop id="SvgjsStop30053" stop-color="#8f5e25" offset="1"></stop></linearGradient><linearGradient id="SvgjsLinearGradient30050"><stop id="SvgjsStop30051" stop-color="#8f5e25" offset="0"></stop><stop id="SvgjsStop30052" stop-color="#fbf4a1" offset="0.5"></stop><stop id="SvgjsStop30053" stop-color="#8f5e25" offset="1"></stop></linearGradient><linearGradient id="SvgjsLinearGradient30050"><stop id="SvgjsStop30051" stop-color="#8f5e25" offset="0"></stop><stop id="SvgjsStop30052" stop-color="#fbf4a1" offset="0.5"></stop><stop id="SvgjsStop30053" stop-color="#8f5e25" offset="1"></stop></linearGradient><linearGradient id="SvgjsLinearGradient30050"><stop id="SvgjsStop30051" stop-color="#8f5e25" offset="0"></stop><stop id="SvgjsStop30052" stop-color="#fbf4a1" offset="0.5"></stop><stop id="SvgjsStop30053" stop-color="#8f5e25" offset="1"></stop></linearGradient><linearGradient id="SvgjsLinearGradient30050"><stop id="SvgjsStop30051" stop-color="#8f5e25" offset="0"></stop><stop id="SvgjsStop30052" stop-color="#fbf4a1" offset="0.5"></stop><stop id="SvgjsStop30053" stop-color="#8f5e25" offset="1"></stop></linearGradient><linearGradient id="SvgjsLinearGradient30050"><stop id="SvgjsStop30051" stop-color="#8f5e25" offset="0"></stop><stop id="SvgjsStop30052" stop-color="#fbf4a1" offset="0.5"></stop><stop id="SvgjsStop30053" stop-color="#8f5e25" offset="1"></stop></linearGradient><linearGradient id="SvgjsLinearGradient30054"><stop id="SvgjsStop30055" stop-color="#8f5e25" offset="0"></stop><stop id="SvgjsStop30056" stop-color="#fbf4a1" offset="0.5"></stop><stop id="SvgjsStop30057" stop-color="#8f5e25" offset="1"></stop></linearGradient><linearGradient id="SvgjsLinearGradient30054"><stop id="SvgjsStop30055" stop-color="#8f5e25" offset="0"></stop><stop id="SvgjsStop30056" stop-color="#fbf4a1" offset="0.5"></stop><stop id="SvgjsStop30057" stop-color="#8f5e25" offset="1"></stop></linearGradient></defs><g id="SvgjsG30044" featurekey="rootContainer" transform="matrix(1.5584416246194768,0,0,1.5584416246194768,-0.15584321265802242,0)" fill="url(&quot;#SvgjsLinearGradient30050&quot;)"><g xmlns="http://www.w3.org/2000/svg" fill="url(&quot;#SvgjsLinearGradient30050&quot;)"><path d="M56.4 104c-.5.1-.8-.1-.7-.2s-.7 0-.9.2a3.3 3.3 0 0 0 2.1-.1c.2.1 0 .2 0 .2s1.1-.5.8-.8-.7.3-1.3.7zm6.5-1.4zm-19.7-.7c.1 0 .1 0 0 0zm19.9.7zM22 91.5a1.2 1.2 0 0 1 .1.4c0-.2.9.5-.1-.4zm40.9 11.3l.2-.2h-.3s0 .2.1.2zm26.4-82.6l-.8-1zm-3.5-3.4l-.4-.6h-.2zm-78 19.7zm-1.9 6.4l-.1-.1.1.2v-.1zm79.4 49.7zm-4.6 3.2l-.7.3zm-3.8 2.1a.3.3 0 0 0 0 .1zM101 39.5v-.2c-.2-.3-.1 0 0 .2zm2.4 20.2V59c0-.3-.1.7 0 .7zm-14-39.4l-.1-.1.1.1z" fill="url(&quot;#SvgjsLinearGradient30050&quot;)"></path><path d="M103.4 59a4.8 4.8 0 0 0 .1-1 3.3 3.3 0 0 0-.1 1zm-44.6 44.2zm-.2.1zm-.5.1zm6.7-1.2c.2-.2 1.3-.1 1.6-.3a8.5 8.5 0 0 0-1.6.3zm36.6-33.9l-.3.5v.3a5.8 5.8 0 0 0 .3-.8zM63.6 1.2zm-21.4-.1zm21.6.2zM18.9 12.7h.5c-.3-.1.6-1-.5 0zM63.6 1.4s-.1-.1 0 0zm29.5 89.7l-1 1zm-3.9 3.8l-.7.4v.2zm-5 3.9z" fill="url(&quot;#SvgjsLinearGradient30050&quot;)"></path><path d="M107.5 53.2l-.2.5a27.3 27.3 0 0 1-.3-3l.2.8-.2-2v1.2c-.2-1.1-.5.1-.4-1.3 0 .3 0-1.1.1-1.6a5.1 5.1 0 0 1-.4-1.8c.1-.2.4.1.5 0s-.4-2.5-.9-3.1.3.2.3.1l-.4-.4c0-.5 0-.6.1-.5-.3-1.5-.3.6-.6-1.2l.2.3a24.5 24.5 0 0 0-.7-2.5c-.2-.8-.6-1.6-.8-2.4s.6 1.3.7.7-1-2.2-1.5-3.3-1.2-2.1-1.6-3.2v.4c-.6 0-.5-1.7-1.3-2.6s.4.2.4.1a38 38 0 0 0-3.2-4.6l.3.2c-.5-.8-1.4-2-2-2.8s-.6-.6-.6-.2l-.5-1-.7-.9-1.5-1.5-1.4-1.6a8.4 8.4 0 0 1-1.4-1.5l.5.3-1.8-1.5c0 .3.1.3.4.8a4.3 4.3 0 0 1-1.3-.8c.9.6.3-.3 0-.7s-.2.1-.2.1-.5.2-1.6-1h.1a11.4 11.4 0 0 1-1.6-1c-.1-.4.6.3.8.1s-1.7-.7-2.3-1.3l1.2.6c-.6-.8-.7-.8-1.3-1.2h.1L81.4 8l.3.3a3.4 3.4 0 0 1-1.8-.6l-.9-.5-1.1-.3c1.6.3.3-.1.6-.3s-.8-.6-.6-.6-1.1-.7-2.2-.9-.7-.4-.5-.5.1.3 0 .3L72.9 4A10.3 10.3 0 0 0 70 3a22.5 22.5 0 0 0-3.2-.2l-.9-.2c-.1-.2.7-.1.7-.1a6.6 6.6 0 0 0-2.6-.7c.2-.1 0-.2-.2-.3s-.5.3-1.4 0l.8-.3h-2.6c-.2-.2.6-.2.9-.2s-2.6-.3-2.9 0h.6c-.4 0-.2-.3.1-.3s1.2.3 1.2.4h-.6c.6.7 2.4.3 3.7.5l-.4.2a52.8 52.8 0 0 0-6.2-.6c.6-.1 1.2-.4.9-.7s-.7.1-1.3.5-.8-.1-.8-.3-.8-.1-1 .1a3.7 3.7 0 0 0 2.3.2c.2.1 0 .2 0 .2h-3.4a1.9 1.9 0 0 0 .2-.5h.4l.3-.3h-.8c-.1-.2-.5-.3-1.4-.4L51 .4l-.4-.2h1.2a2.3 2.3 0 0 0-1.5.2l-.7-.4-1.3.6c-.2-.2.6-.4-.3-.4s.6.3-.4.6-.6-.4-1.3-.1 0-.2.3-.3-1.8.3-2.1.6a5 5 0 0 0-1.4.1c-.5.1-.9.2-.9 0a7.3 7.3 0 0 1-1.7.8c1-.8-2.3.6-2.2-.1a8 8 0 0 1-1.9 1L34 3.9l.3-.2a9.8 9.8 0 0 1-1.7.3c.1.4-1.1 1.1-1.7 1.6s.4-.7-.1-.9-1.5 1.1-1.1 1.2-.7.2-1.2.1-.7.4-1.1 1-.5-.2-1.5.6.3-.6.3-.6l-.5 1c-.2.4-.8.1-1.3.3l-1 .9-.8.8c-.1 0-.2 0-.1-.1s-2.5 1.8-3.2 2.9h-.2a.5.5 0 0 1 .5.3c-.4.4-.6.9-1 .9a.8.8 0 0 0 .3-.5l-.4.5c-.6.1.5-.6.4-.8a22.1 22.1 0 0 1-2.4 2.6c-.4-.1 1.5-1.5.4-.9L18 14c-1.2.3.7-.6-.5-.3l-1.4 1.4-1.1 1.1c-.1.4.3.1.1.5-1.5 2.2-2 1-3 2.7a2.5 2.5 0 0 1-.9 1.9v-.6c-1.1 1.4-.2 1.2-1.5 2.5.1-.4.7-1.2.5-1s-.3.8-.9 1.6H9l-1.5 2.7c-.5.9-1 1.8-1.4 2.8s0-.5-.3-.1-1.1 2.5-1.7 3.8l-1.7 3.7v1c-.1.2-.2.4-.2.1s.2.1.2.6-.4.7-.3.3-.3 2.2-.5 3.4l-.2.9v.9a11.7 11.7 0 0 1-.4 1.6v-.4c-.3 1.4.3 1.7-.1 3V48c-.6 1.6-.6 3.2-.7 4.8v2.3a16.2 16.2 0 0 1-.1 2c.2.2.2 1 .2 1.8s.2 1.5.4 1.5a23.1 23.1 0 0 0 0 3.9c.1.7.6.9.8 1.7h-.3l.6 1-.2.7.3.7c-.1-.3 0-.7.1-.7a8.1 8.1 0 0 1 .4 1.9 2.6 2.6 0 0 1 .1 1.1l1.3 2.7c-.1 0-.3-.5-.6-.8.8 1.4-.2.4.6 1.6s.2 0 .3 0a11.3 11.3 0 0 0 1.4 3.3H5a20.3 20.3 0 0 0 1.6 3l1.9 3.1c-.4-.8 0-.8.4-.2v.4c.4.3-.3-.7.4 0s.1.7-.3.3l.8.8c0 .1-.2-.1-.4-.1s.9 1.7 1.6 2l1 1.3.9 1 1.8 1.9c.2-.2.7.5 1.3.7s2.1 2.3 3.4 3.5.4 0 1 .3 1.3 1.3.5.9l2 1.4 1 .7 1.5.8c-.2-.2-.4-.4-.3-.4s.9.7.8.7h-.1c1.4.6 2.7 1.7 4.2 2.5l2.1 1.2 1 .5 1 .2H34l2.4.6c1 .4-.7-.1 0 .4l1.8.5 1.5.4a17.4 17.4 0 0 0 2.9.7l.7.4.9.2 2.2.3 2.3.3 2 .3v-.2c.6-.1.7.1 1.1.2s-.6-.2-.3-.3c2.5.1 5.1 0 7.7-.1l3.9-.4 2-.2 1.9-.4c1.9-.4.8-1.2 3.2-1.3l-.6.5 1.3-.5 1.3-.5 2.7-1a42.6 42.6 0 0 0 5.1-2.6c-.2.2-.1.3-.4.4a5.4 5.4 0 0 0 2.4-1.6c.5-.3.2.1.6 0s1.5-1.3 2-1.3v.2c.5-.4 1.8-1.3 1.2-1.2 1.2-.7 2.1-1.7 3-2.3s1.9-1.5 1.7-2 2.1-1.3 2.5-2.2.6-.5.5-.1 1.2-1.5.9-1.5c1.7-1 2-3.2 3.2-3.6l1.2-1.9 1-1.9 1-1.8.5-.9.4-.9c.2.1-.1.8-.5 1.5s-.7 1.2-.5 1.3l.8-1.6.5-1.5a20.9 20.9 0 0 1 1.3-3c.3-.6 0 .4 0 .6s.9-2.4 1.3-3.5l.6-1.7.3-.8v-.8a1.2 1.2 0 0 1 0 .5c.1-.4.3-1 .1-1v.4c-.5.6-.2-1.9-.3-2s.7-2.1 1.1-.8c0-.3 0-.7-.1-.6s.3-.5.3-.1a3.2 3.2 0 0 0 .1-1.3 3.7 3.7 0 0 1 .1-1.2c.1 0 .1.3.2.5a7.4 7.4 0 0 1 .1-2.7c0 .1.1 0 .1.3.4-2.1-.2-3.6.1-5.8.4.7.2-.8.6-.9a8.2 8.2 0 0 0-.4-1.3zM8.6 74.6l.4.9c-.1.1-.2.1-.3-.1s0-.5-.1-.8zm1 2.1l.3.5zm44.1 27.7h-.1a1.6 1.6 0 0 0 .2-.5h.3l.3-.3h-.7c-.1-.2-.4-.4-1.3-.6l-1.3.2-.4-.2h1.1a2 2 0 0 0-1.4 0l-.5-.3-1.3.4c-.1-.2.6-.3-.2-.5s.5.5-.5.5-.4-.4-1.1-.4.1-.2.4-.2-1.7-.2-2 0a4.2 4.2 0 0 0-1.3-.3c-.4-.1-.8-.2-.7-.4a5.9 5.9 0 0 1-1.7-.1c1.2-.2-2.1-.6-1.7-1a3.4 3.4 0 0 1-1.9-.3l-2.3-.7h.4a7.7 7.7 0 0 1-1.3-.8c-.2.3-1.4-.1-2.1-.2s.7-.2.6-.6-1.6-.4-1.5-.1-.5-.4-.7-.8-.7-.2-1.3-.3 0-.5-1.1-1 .6 0 .6 0-.7 0-1 .1-.4-.6-.7-1l-1.2-.4-.9-.5c0-.1-.1-.2.1-.1s-2.2-1.6-3.3-2v-.2a.5.5 0 0 1-.2.5c-.4-.4-.9-.5-.9-.8a.7.7 0 0 0 .5.2l-.5-.3c-.1-.6.7.4.8.2a18.8 18.8 0 0 1-2.6-2c.1-.4 1.5 1.2.9.3l.9 1c-.4-1.1.6.6.3-.5L20 89.2a5.9 5.9 0 0 1-1.3-1.2c-.4-.2-.1.3-.5.1s-.6-2-2.2-3a1.9 1.9 0 0 1-1.6-1.1h.6c-1-1.3-1-.4-1.8-2 .3.2.9 1 .8.7s-.7-.5-1.2-1.2l.2-.3-1.6-2.3a16.4 16.4 0 0 1-1.6-2.4c.1.1.4.3.3-.2a34.2 34.2 0 0 1-1.7-3.5c-.4-1.2-.7-2.5-1.1-3.6l-.6-.8c-.1-.2 0-.4.1-.2s-.2 0-.4-.4 0-.7.2-.4-.7-1.8-1.1-3l-.2-.8V63a10 10 0 0 1-.3-1.5v.3c-.1-1.3-.8-1.4-.7-2.7v.2l-.2-4.4v-2.1a13.6 13.6 0 0 1 .5-1.8c-.2-.2-.1-.9-.1-1.6s.2-1.3-.1-1.5a20.5 20.5 0 0 0 1.1-3.4c.1-.6-.2-1 0-1.7h.3v-1.1l.5-.4v-.7c-.1.3-.3.6-.4.5a6.8 6.8 0 0 1 .5-1.7c.3-.5.5-.8.6-.8l.7-2.6c.1.1 0 .3 0 .6s.4 0 .5-1.2-.1-.2-.2-.2a17 17 0 0 0 1.5-2.9v.3a57.3 57.3 0 0 1 3-5.6c-.5.6-.7.3-.4-.3h.4c.1-.5-.5.5-.2-.4s.6-.2.4.2l.5-.9c.1 0 0 .2.1.3s1.6-1.2 1.7-1.9h.1l.9-1.2.8-.9 1.5-1.8c-.2-.2.3-.7.5-1.3s2.3-1.7 3.5-2.8.1-.4.4-.8 1.5-.8.9-.2l1.8-1.4.9-.7 1.2-.9c-.3 0-.6.2-.5 0s.9-.4.9-.3h-.1a12 12 0 0 1 4-2l2-.8.9-.4.8-.4h-.1l2-1c1-.3-.5.4.3.3l1.5-.7 1.4-.3a14.6 14.6 0 0 0 2.7-.7h1.6l2-.3 2-.4h1.9v-.1c.5-.2.7.1 1.1.1s-.6-.1-.3-.2a30.5 30.5 0 0 1 7 .2l3.5.7 1.7.4 1.7.5c1.6.5 1.2-.6 3.2.3l-.7.2a30.7 30.7 0 0 1 5 1.6l4.7 2.2H77a5.1 5.1 0 0 0 2.4 1.2c.4.3 0 .2.2.5s1.7.7 1.9 1.1h-.3c.4.2 1.7 1.3 1.5.8s2.1 1.3 2.7 2.1 1.5 1.6 2 1.4 1.4 1.7 2.1 2.2.4.6 0 .5 1.2 1.2 1.3 1c.8 1.5 2.5 2.4 2.5 3.5l1.3 1.5 1.1 1.3 1.1 1.6.5.8.4.8c-.2.1-.5-.6-.9-1.1s-.7-1.1-.9-.9l1 1.3.8 1.2a17.7 17.7 0 0 1 1.4 2.6c.2.6-.3-.2-.5-.4a16.2 16.2 0 0 1 1.3 3.1l.6 1.5.3.7.3.7-.2-.4c.1.4.2.9.4.8l-.2-.4c.1-.7 1 1.4 1.2 1.5s.4 2-.6 1.1.3.6.4.5 0 .5-.2.2l.5 1.1a3.1 3.1 0 0 1 .3 1.1c-.1 0-.2-.2-.3-.4a6.2 6.2 0 0 1 .7 2.4c-.1-.1-.1.1-.2-.3a21 21 0 0 1 .8 5.4c-.5-.6-.1.7-.5.8a7.2 7.2 0 0 1 .1 1.1l.2-.5a23.4 23.4 0 0 1 0 2.8V58l.2-1.1c.1 1 .5-.1.3 1.3 0-.3 0 1-.4 1.5a4.5 4.5 0 0 1-.1 1.8c-.1.2-.4-.2-.5-.1s-.2 2.3-.1 3-.2-.3-.3-.2v.5c-.2.4-.3.5-.4.4s.6-.3 0 1.2v-.4a21.5 21.5 0 0 0-.6 2.4 9.9 9.9 0 0 1-.7 2.2c-.5.3.4-1.3-.1-.9s-.6 2.2-.9 3.3a17.4 17.4 0 0 1-1.3 3.1l.2-.3c.3.5-.9 1.3-1.2 2.4s-.1-.4-.1-.3-1.4 2.6-2.5 4.6v-.3c-.6.6-1.4 1.8-2 2.5s-.4.7 0 .6l-.8.7-.8.7-1.3 1.4a13.1 13.1 0 0 1-1.3 1.5 7.4 7.4 0 0 1-1.6 1.2c.2-.2.5-.6.3-.4L86 91.9c.3.1.3-.1.8-.3a4 4 0 0 1-.9 1.2c.6-.8-.2-.3-.7-.1s0 .2.1.2.1.5-1.3 1.2a10.3 10.3 0 0 1-1.2.9c-.4-.1.4-.5.3-.7S82 95.8 81.2 96l1-.8-1.5.6h.1l-1.3.7h.4a3 3 0 0 1-1.3 1.2l-.8.5-.9.6c1.1-1 .1-.3.1-.6s-.9.3-.8.1-1.1.3-1.9 1.1-.7.3-.6 0 .3.1.2.2a5.6 5.6 0 0 1-2.3.9 9 9 0 0 0-2.7 1.1c-1.6.7-1.9 1-3.4 1.6h-.1c-.5 0 .4-.5.4-.5a9.9 9.9 0 0 0-2.3.5c.2-.1 0-.2-.3-.2s-.4.4-1.3.4l.6-.5-2.3.7c-.2-.1.5-.3.7-.5a11.7 11.7 0 0 0-2.6.8h.6c-.3 0-.2-.2 0-.3s1.1-.1 1.2 0l-.6.2c.7.5 2.3-.4 3.5-.6l-.4.4a50.5 50.5 0 0 1-8.8.8zm10.3-1.1l-1.2.2 1-.4c.1 0 .3.1.2.2zm5.3-1.4l.5-.5h.4zm2.6-.9zm17.7-11.6c0-.1 0-.3.3-.7l.2.2zM92 17.1v.2l-.6-.6s.2.1.5.4zM70.7 3.7l.2.3-.9-.3zm-6.4-1.8c.1.1.3.2.2.3L63.4 2zM6.5 28.8l-.3.6zm-.9 1.9c.1 0 .2.1.1.3s-.3.4-.5.7z" fill="url(&quot;#SvgjsLinearGradient30050&quot;)"></path><path d="M1.1 66.1h.1l-.1-.3v.3zm86.4-53.5zM82.6 9l-.7-.5zm-3.9-2.5zm26.6 63.1v.2c-.1.4 0 .1 0-.2zm1.3-21.8l.2.7c0-.4 0-.7-.2-.7zM93.2 91l-.1.1.1-.1zm13.7-42.6a5.8 5.8 0 0 0 0 1 3.6 3.6 0 0 0 0-1zM59.3.5zm-.1 0zm-.7.1zm7.2 1h-.1c.3-.1 1.3.6 1.7.5a10 10 0 0 0-1.6-.5zm39.2 36.8a5 5 0 0 0 0-.7l-.3-.2z" fill="url(&quot;#SvgjsLinearGradient30050&quot;)"></path></g></g><g id="SvgjsG30045" featurekey="monogramFeature-0" transform="matrix(1.3209020634811728,0,0,1.3209020634811728,38.39783576719175,25.748224711167303)" fill="url(&quot;#SvgjsLinearGradient30054&quot;)"><path d="M29.46 19.380000000000003 q3.66 0 6.09 1.95 t2.01 4.47 q-0.06 0.72 -0.42 1.77 t-0.96 2.52 t-1.56 2.88 t-2.13 2.61 t-2.76 1.89 t-3.33 0.63 q3.24 -1.98 5.94 -7.56 q2.4 -5.1 1.56 -7.08 q-0.3 -0.54 -0.84 -0.66 q-2.04 -0.3 -5.73 1.8 t-6.99 5.01 t-5.52 6.03 t-1.62 4.74 q0.3 0.78 0.75 1.56 t1.32 1.86 t1.26 1.56 t1.74 1.92 t1.59 1.68 q7.02 -0.3 10.02 1.02 q-3.72 -0.36 -9.12 -0.06 q1.44 1.68 2.4 3.06 t1.62 3 t0.48 3.27 t-1.2 3.27 q-3.06 4.74 -12.18 6.48 q-8.46 1.62 -15.6 -0.36 q-6.66 -1.92 -7.14 -6.06 q-0.36 -2.82 2.52 -6.3 q1.8 -1.62 5.91 -3.12 t9.03 -2.52 t9.84 -1.44 q-0.3 -0.3 -0.84 -0.9 q-2.7 -2.94 -4.05 -4.56 t-2.61 -4.02 t-0.96 -4.08 q0.6 -2.76 4.35 -6.63 t8.7 -6.78 t8.43 -2.85 z M21.72 58.08 q0.42 -1.32 -0.72 -3.21 t-3.6 -4.65 q-7.92 0.78 -14.85 2.82 t-10.35 5.22 q1.2 2.94 4.5 4.47 t7.23 1.5 t7.8 -0.78 t6.69 -2.28 t3.3 -3.09 z M67.827 65.04 q0.42 0.3 0.99 0.21 t1.41 -0.66 t1.62 -1.23 t1.68 -1.59 t1.62 -1.74 t1.38 -1.59 q-0.24 2.04 -2.16 4.56 t-3.99 4.14 t-2.85 1.56 q-2.46 -0.12 -3.84 -1.95 t-1.68 -4.92 t0.06 -6.78 t1.32 -8.13 q-4.14 0.24 -8.58 1.08 q-8.22 9.48 -15.51 15.84 t-10.35 6.3 q-2.1 -0.06 -3.36 -0.93 t-1.59 -2.1 t-0.21 -2.67 t0.48 -2.55 t0.84 -1.77 q3.66 -4.92 11.55 -8.7 t17.01 -5.52 q5.76 -6.42 10.83 -13.5 t8.07 -12.66 q0.36 -0.78 0.72 -1.38 q0.96 0.12 2.31 1.95 t1.53 3.57 q-1.2 1.62 -3.54 7.77 t-3.96 13.35 q7.74 0.78 10.32 4.38 q-4.14 -2.16 -10.68 -2.52 q-2.04 10.02 -1.44 18.18 z M26.307 62.04 q1.32 1.44 3.33 1.53 t4.41 -0.96 t5.25 -3.09 t5.76 -4.71 t6.03 -5.97 q-8.58 2.04 -15.39 5.61 t-9.39 7.59 z M63.867 44.76 q1.56 -6.42 3.96 -13.38 q-4.56 6.66 -10.74 13.98 q3.54 -0.48 6.78 -0.6 z" fill="url(&quot;#SvgjsLinearGradient30054&quot;)"></path></g><g id="SvgjsG30046" featurekey="nameFeature-0" transform="matrix(1,0,0,1,84,118)" fill="#F6F6F6"><path d="" fill="#F6F6F6"></path></g></svg>